<svg width="48" height="43" xmlns="http://www.w3.org/2000/svg" xmlns:xlink="http://www.w3.org/1999/xlink" xml:space="preserve" overflow="hidden"><g transform="translate(-2591 -983)"><path d="M15.3635 24.6354 17.4284 21.0521C16.8913 20.7863 16.3825 20.4667 15.91 20.098L13.6704 23.9815C14.2602 24.1268 14.8292 24.3466 15.3635 24.6354Z" transform="matrix(1.11628 0 0 1 2591 983)"/><path d="M23.8336 32.25C23.7729 31.8798 23.7414 31.5054 23.7396 31.1302 23.7401 30.9058 23.7521 30.6815 23.7754 30.4583L19.2246 30.4583C19.2479 30.6815 19.2599 30.9058 19.2604 31.1302 19.2586 31.5054 19.2271 31.8798 19.1664 32.25Z" transform="matrix(1.11628 0 0 1 2591 983)"/><path d="M27.3229 24.8191C27.8366 24.5034 28.3872 24.2522 28.9623 24.071L26.6645 20.0891C26.1853 20.4621 25.669 20.7849 25.1236 21.0521Z" transform="matrix(1.11628 0 0 1 2591 983)"/><path d="M11.8698 25.5312C8.77755 25.5312 6.27083 28.038 6.27083 31.1302 6.27083 34.2224 8.77755 36.7292 11.8698 36.7292 14.962 36.7292 17.4688 34.2224 17.4688 31.1302 17.4688 28.038 14.962 25.5312 11.8698 25.5312ZM11.8698 27.7126C12.7381 27.7101 13.444 28.412 13.4465 29.2803 13.4489 30.1486 12.747 30.8545 11.8787 30.857 11.0105 30.8594 10.3045 30.1576 10.3021 29.2893 10.3021 29.2863 10.3021 29.2833 10.3021 29.2803 10.3045 28.4155 11.005 27.7151 11.8698 27.7126ZM15.0052 34.0103 8.73438 34.0103 8.73438 32.8144C8.74033 32.5691 8.85527 32.3392 9.04792 32.1873 9.51276 31.8534 10.0307 31.6005 10.5798 31.4393 11.0007 31.3169 11.436 31.2507 11.8743 31.2422 12.313 31.2449 12.7491 31.3113 13.1687 31.4393 13.7243 31.5835 14.2452 31.8379 14.7006 32.1873 14.8933 32.3392 15.0082 32.5691 15.0142 32.8144Z" transform="matrix(1.11628 0 0 1 2591 983)"/><path d="M28.2188 13.2135C28.2188 9.3792 25.1104 6.27083 21.276 6.27083 17.4417 6.27083 14.3333 9.3792 14.3333 13.2135 14.3333 17.0479 17.4417 20.1562 21.276 20.1562 25.1104 20.1562 28.2188 17.0479 28.2188 13.2135ZM21.2626 8.95833C22.3387 8.95833 23.211 9.8307 23.211 10.9068 23.211 11.9828 22.3387 12.8552 21.2626 12.8552 20.1865 12.8552 19.3142 11.9828 19.3142 10.9068 19.3166 9.83168 20.1875 8.9608 21.2626 8.95833ZM25.1505 16.77 17.3702 16.77 17.3702 15.274C17.3759 14.9687 17.5191 14.6823 17.7599 14.4946 18.3338 14.0805 18.9747 13.7684 19.6546 13.5719 20.1773 13.4193 20.7182 13.338 21.2626 13.33 21.8062 13.3309 22.3465 13.4124 22.8661 13.5719 23.554 13.7509 24.1995 14.0645 24.7653 14.4946 25.0034 14.684 25.1446 14.9697 25.1505 15.274Z" transform="matrix(1.11628 0 0 1 2591 983)"/><path d="M31.1302 25.5312C28.038 25.5312 25.5312 28.038 25.5312 31.1302 25.5312 34.2224 28.038 36.7292 31.1302 36.7292 34.2224 36.7292 36.7292 34.2224 36.7292 31.1302 36.7292 28.038 34.2224 25.5312 31.1302 25.5312ZM31.1302 27.7126C31.9985 27.7101 32.7044 28.412 32.7069 29.2803 32.7093 30.1486 32.0075 30.8545 31.1392 30.857 30.2709 30.8594 29.565 30.1576 29.5625 29.2893 29.5625 29.2863 29.5625 29.2833 29.5625 29.2803 29.565 28.4155 30.2654 27.7151 31.1302 27.7126ZM34.2656 34.0103 27.9948 34.0103 27.9948 32.8144C28.0007 32.5691 28.1157 32.3392 28.3083 32.1873 28.7732 31.8534 29.2911 31.6005 29.8402 31.4393 30.2612 31.3169 30.6964 31.2507 31.1347 31.2422 31.5735 31.2449 32.0095 31.3113 32.4292 31.4393 32.9847 31.5835 33.5056 31.8379 33.961 32.1873 34.1537 32.3392 34.2686 32.5691 34.2746 32.8144Z" transform="matrix(1.11628 0 0 1 2591 983)"/></g></svg>