<svg width="71" height="67" xmlns="http://www.w3.org/2000/svg" xmlns:xlink="http://www.w3.org/1999/xlink" xml:space="preserve" overflow="hidden"><g transform="translate(-2629 -912)"><path d="M23.0312 27.2188C21.4958 27.2188 20.2396 25.9625 20.2396 24.4271 20.2396 23.45 20.7979 22.5427 21.5656 22.0542 21.5656 22.5427 21.6354 23.101 21.6354 23.7292 21.6354 24.4969 22.2635 25.125 23.0312 25.125 23.799 25.125 24.4271 24.4969 24.4271 23.7292 24.4271 23.101 24.4271 22.5427 24.3573 21.9844 25.1948 22.4729 25.8229 23.3802 25.8229 24.4271 25.8229 25.9625 24.5667 27.2188 23.0312 27.2188ZM57.3687 39.2229 37.8271 19.6813C37.2688 19.1229 36.5708 18.8438 35.8729 18.8438L23.8688 18.8438C23.101 16.401 21.6354 15.1448 19.1229 14.6562 18.2156 14.5167 17.4479 14.3771 16.6802 14.2375 12.7021 13.6792 11.8646 13.5396 11.8646 9.07292 11.8646 8.30521 11.2365 7.67708 10.4688 7.67708 9.70104 7.67708 9.07292 8.30521 9.07292 9.07292 9.07292 15.6333 11.6552 16.3313 16.2615 17.0292 16.9594 17.1688 17.7271 17.2385 18.6344 17.4479 19.5417 17.6573 20.5188 17.7969 21.0771 19.2625 18.9833 20.1 17.5177 22.124 17.5177 24.4969L17.5177 37.2688C17.5177 38.0365 17.7969 38.7344 18.3552 39.2229L37.8969 58.7646C38.3854 59.3229 39.0833 59.5323 39.7812 59.5323 40.4792 59.5323 41.1771 59.2531 41.7354 58.6948L57.299 43.1313C58.4156 42.0844 58.4156 40.2698 57.3687 39.2229Z" transform="matrix(1.0597 0 0 1 2629 912)"/></g></svg>