<svg width="72" height="68" xmlns="http://www.w3.org/2000/svg" xmlns:xlink="http://www.w3.org/1999/xlink" xml:space="preserve" overflow="hidden"><g transform="translate(-991 -821)"><path d="M62.6167 19.4792C62.6167 18.5583 61.8375 17.7792 60.9167 17.7792L59.075 17.7792C61.1292 14.6625 60.2792 10.4833 57.2333 8.42917 54.9667 6.94167 52.0625 6.94167 49.7958 8.42917L49.7958 6.65833C49.7958 5.7375 49.1583 4.95833 48.2375 4.81667 47.2458 4.74583 46.3958 5.45417 46.325 6.375 46.325 6.44583 46.325 6.51667 46.325 6.5875L46.325 8.35833C46.1833 8.14583 46.0417 8.00417 45.8292 7.79167 43.2083 5.17083 38.9583 5.17083 36.3375 7.79167 33.7167 10.4125 33.7167 14.6625 36.3375 17.2833 36.4792 17.425 36.6917 17.6375 36.9042 17.7792L35.2042 17.7792C34.2833 17.7792 33.5042 18.4167 33.3625 19.3375 33.2917 20.3292 34 21.1792 34.9208 21.25 34.9917 21.25 35.0625 21.25 35.1333 21.25L36.8333 21.25C35.9833 22.4542 35.6292 23.9417 35.7 25.4292 35.7 26.2083 35.4167 26.9875 34.85 27.4833L5.38333 57.0917C4.81667 57.6583 4.81667 58.5083 5.38333 59.075L8.35833 62.05C8.925 62.6167 9.775 62.6167 10.3417 62.05L12.325 60.0667 14.8042 62.5458C15.3708 63.1125 16.2208 63.1125 16.7875 62.5458L18.7708 60.5625C19.3375 59.9958 19.3375 59.1458 18.7708 58.5792L16.2917 56.1 18.275 54.1167 22.3125 58.1542C22.8792 58.7208 23.7292 58.7208 24.2958 58.1542L24.2958 58.1542 27.2708 55.1792C27.8375 54.6125 27.8375 53.7625 27.2708 53.1958L23.375 49.0875 39.8792 32.5833C40.4458 32.0167 41.225 31.7333 42.0042 31.7333 42.1458 31.7333 42.2875 31.7333 42.4292 31.7333 43.775 31.7333 45.05 31.3083 46.1833 30.6L46.1833 32.4417C46.1833 33.3625 46.8208 34.1417 47.7417 34.2833 48.7333 34.3542 49.5833 33.6458 49.6542 32.725 49.6542 32.6542 49.6542 32.5833 49.6542 32.5125L49.6542 30.7417C49.7958 30.9542 49.9375 31.0958 50.15 31.3083 52.7708 33.9292 57.0208 33.9292 59.6417 31.3083 62.2625 28.6875 62.2625 24.4375 59.6417 21.8167L59.6417 21.8167C59.5 21.675 59.2875 21.4625 59.075 21.3208L60.8458 21.3208C61.8375 21.3208 62.6167 20.5417 62.6167 19.55L62.6167 19.4792ZM51.2125 11.7583C52.4875 10.4833 54.4708 10.4833 55.7458 11.7583 57.0208 13.0333 57.0208 15.0167 55.7458 16.2917 54.4708 17.5667 52.4875 17.5667 51.2125 16.2917 50.6458 15.725 50.2917 14.875 50.2917 14.025 50.2917 13.175 50.575 12.3958 51.2125 11.7583ZM38.675 10.2708C39.95 8.99583 41.9333 8.99583 43.2083 10.2708 44.4833 11.5458 44.4833 13.5292 43.2083 14.8042 41.9333 16.0792 39.95 16.0792 38.675 14.8042 38.1083 14.2375 37.7542 13.3875 37.7542 12.5375 37.7542 11.6875 38.1083 10.9083 38.675 10.2708ZM44.6958 27.3417C43.4208 28.6167 41.4375 28.6167 40.1625 27.3417 38.8875 26.0667 38.8875 24.0833 40.1625 22.8083 41.4375 21.5333 43.4208 21.5333 44.6958 22.8083 45.2625 23.375 45.6167 24.225 45.6167 25.075 45.6167 25.925 45.2625 26.7042 44.6958 27.3417ZM57.2333 28.8292C55.9583 30.1042 53.975 30.1042 52.7 28.8292 51.425 27.5542 51.425 25.5708 52.7 24.2958 53.975 23.0208 55.9583 23.0208 57.2333 24.2958 57.8 24.8625 58.1542 25.7125 58.1542 26.5625 58.1542 27.4125 57.8 28.1917 57.2333 28.8292Z" transform="matrix(1.05882 0 0 1 991 821)"/></g></svg>