<svg width="37" height="36" xmlns="http://www.w3.org/2000/svg" xmlns:xlink="http://www.w3.org/1999/xlink" xml:space="preserve" overflow="hidden"><g transform="translate(-406 -939)"><path d="M23.7098 9.3C24.253 8.95485 24.5819 8.35583 24.5816 7.71225L24.5816 7.24575C25.9436 6.53325 26.2376 5.74237 26.2376 5.19263 26.229 3.225 22.3774 1.5 17.9944 1.5 13.6114 1.5 9.75788 3.225 9.75788 5.19413 9.75788 5.73825 10.0522 6.52462 11.4139 7.245L11.4139 7.74487C11.4144 8.3649 11.7192 8.94518 12.2295 9.29737L12.3795 9.39975 12.3795 12.375C12.3806 14.1408 13.2124 15.8032 14.625 16.8626L14.625 17.9704C14.6257 18.275 14.4416 18.5495 14.1596 18.6645L12.3045 19.425C10.6099 20.0325 9 20.7244 7.64775 21.8302 6.86276 22.4438 6.3966 23.3789 6.37912 24.375L6.37912 30.7635 6.546 30.876C8.29988 32.0452 13.2315 32.6287 18.1234 32.6287 23.0359 32.6287 27.9086 32.04 29.4757 30.864L29.625 30.75 29.625 24.3675C29.6062 23.3765 29.1426 22.4465 28.3624 21.8351 27.0022 20.7221 25.386 20.0291 23.6865 19.4216L21.8419 18.6645C21.5599 18.5494 21.376 18.2749 21.3769 17.9704L21.3769 16.8652C22.7927 15.8065 23.627 14.1428 23.6287 12.375L23.6287 9.35175ZM23.8316 6.7845C18.0941 7.7865 17.8455 7.79962 12.1639 6.7785L11.9528 6.67575C11.2935 6.35625 10.5079 5.8395 10.5079 5.193 10.5079 3.8625 13.8476 2.25 17.9944 2.25 22.1411 2.25 25.482 3.8625 25.4876 5.19413 25.4876 5.70337 24.975 6.22988 24.0442 6.6765ZM12.1639 7.74487 12.1639 7.54462C14.9606 8.0505 16.4662 8.33212 17.9764 8.33212 19.4865 8.33212 21.0086 8.04412 23.8301 7.54838L23.8301 7.71375C23.8299 8.10229 23.6308 8.46367 23.3025 8.6715L22.5799 9.13912C19.683 11.0133 15.9417 10.9553 13.1044 8.99212L12.6544 8.68087C12.347 8.46844 12.1637 8.11853 12.1639 7.74487ZM20.628 16.4771C19.0289 17.5091 16.9734 17.5084 15.375 16.4753L15.375 16.4753C13.9764 15.5806 13.1297 14.0353 13.1284 12.375L13.1284 9.8925C16.1248 11.73 19.9045 11.707 22.8784 9.83325L22.8784 12.375C22.8757 14.0364 22.0277 15.5821 20.628 16.4771ZM14.445 19.3582C15.0087 19.1282 15.3766 18.5792 15.375 17.9704L15.375 17.3453C17.0168 18.2181 18.9848 18.2188 20.6273 17.3471L20.6273 17.9704C20.6258 18.5791 20.9937 19.1279 21.5573 19.3579L21.8711 19.4865C20.6536 20.0219 19.333 20.2825 18.0034 20.25 16.6727 20.2829 15.3511 20.022 14.1326 19.4861ZM20.6625 30.8693 23.5654 27.966C24.446 28.9396 25.054 30.1284 25.3279 31.4123 23.8839 31.6287 22.4293 31.7675 20.9704 31.8281 20.9229 31.4933 20.8188 31.1691 20.6625 30.8693ZM20.2267 30.2445C19.7464 29.71 19.0898 29.3662 18.3769 29.2759L18.3769 25.5165C20.1051 25.5976 21.7517 26.2759 23.0355 27.4358ZM17.6269 29.2759C16.9138 29.3663 16.257 29.7102 15.7766 30.2449L12.969 27.4373C14.2526 26.2773 15.8988 25.5984 17.6269 25.5165ZM15.3394 30.8696C15.1863 31.1647 15.0837 31.4834 15.036 31.8124 13.5793 31.7436 12.1273 31.5979 10.686 31.3759 10.9634 30.1064 11.5677 28.9314 12.4391 27.9675ZM15.7894 31.8473C15.982 30.7924 16.8923 30.0202 17.9644 30.0019 17.9767 30.0052 17.9892 30.0078 18.0019 30.0098 18.0145 30.0079 18.027 30.0052 18.0394 30.0019 19.1147 30.0219 20.0258 30.7996 20.2144 31.8585 18.7579 31.908 17.25 31.9046 15.7901 31.8473ZM23.4844 20.1446C25.1006 20.7248 26.6291 21.3855 27.8951 22.4209 28.4988 22.8919 28.8586 23.6095 28.875 24.375L28.875 30.3664C27.997 30.8307 27.0456 31.1406 26.0625 31.2825 25.7622 29.8471 25.0827 28.5185 24.0945 27.435L25.9545 25.5754C26.0949 25.4231 26.0852 25.1859 25.9329 25.0455 25.7895 24.9133 25.5686 24.9131 25.425 25.0451L23.5654 26.9048C22.1398 25.6055 20.3028 24.8489 18.3757 24.7673L18.3757 22.125C18.3757 21.9179 18.2079 21.75 18.0007 21.75 17.7936 21.75 17.6257 21.9179 17.6257 22.125L17.6257 24.7665C15.6993 24.8495 13.8633 25.607 12.4387 26.9066L10.5772 25.0451C10.4263 24.9033 10.1889 24.9108 10.0472 25.0618 9.91174 25.206 9.91166 25.4307 10.047 25.575L11.9085 27.4365C10.9291 28.5096 10.2526 29.8237 9.948 31.2443 8.96869 31.0927 8.01821 30.7924 7.1295 30.354L7.1295 24.3833C7.14484 23.6121 7.50754 22.889 8.1165 22.4156 9.3765 21.3848 10.9042 20.7251 12.5198 20.145L12.5198 20.1484 13.2979 19.8716C14.3137 20.5714 16.0875 21 18.0034 21 19.9193 21 21.6915 20.571 22.7062 19.8713Z" transform="matrix(1.02778 0 0 1 406 939)"/><path d="M16.3177 5.85375 16.4377 5.80162C16.5934 6.31271 16.9901 6.71483 17.499 6.8775L17.9227 7.10663C17.967 7.13141 18.021 7.13141 18.0653 7.10663L18.4815 6.88163C18.9932 6.7185 19.3925 6.315 19.5502 5.80162L19.6702 5.85375C19.7207 5.87348 19.7778 5.86489 19.8202 5.83125 19.8573 5.79675 19.8755 5.74646 19.869 5.69625L19.7715 4.94625C19.765 4.89319 19.7307 4.84762 19.6815 4.82662 19.6289 4.80484 19.5683 4.81665 19.5278 4.85663L18.939 5.31038C18.897 5.34323 18.8756 5.39591 18.8827 5.44875 18.8906 5.50147 18.9244 5.5467 18.9728 5.56913L19.1603 5.64787C19.0333 6.10774 18.6518 6.45259 18.1815 6.5325L18.1815 4.5075 19.5128 4.5075 19.5128 4.1025 18.2115 4.1025 18.2115 4.00125C18.5058 3.88943 18.6537 3.5602 18.5418 3.26593 18.43 2.97166 18.1008 2.82378 17.8065 2.93562 17.5122 3.04745 17.3643 3.37667 17.4762 3.67093 17.534 3.82316 17.6542 3.94339 17.8065 4.00125L17.8065 4.1025 16.4902 4.1025 16.4902 4.50787 17.8065 4.50787 17.8065 6.53288C17.3327 6.44936 16.9506 6.09806 16.8278 5.63287L17.0153 5.55412C17.0646 5.53387 17.098 5.4873 17.1015 5.43412 17.1091 5.38207 17.0875 5.3301 17.0452 5.29875L16.4565 4.845C16.4141 4.81069 16.3559 4.80356 16.3065 4.82662 16.2539 4.84373 16.215 4.88842 16.2052 4.94287L16.1077 5.69287C16.1029 5.7462 16.1255 5.79836 16.1677 5.83125 16.2102 5.86481 16.2673 5.8734 16.3177 5.85375ZM18.0098 3.2745C18.1172 3.2745 18.2044 3.36164 18.2044 3.46913 18.2044 3.57661 18.1172 3.66375 18.0098 3.66375 17.9023 3.66375 17.8151 3.57661 17.8151 3.46913 17.8151 3.469 17.8151 3.46887 17.8151 3.46875 17.8151 3.36147 17.9021 3.2745 18.0094 3.2745 18.0095 3.2745 18.0096 3.2745 18.0098 3.2745Z" transform="matrix(1.02778 0 0 1 406 939)"/></g></svg>